<?xml version="1.0" encoding="UTF-8" standalone="no"?>
<!-- Created with Inkscape (http://www.inkscape.org/) -->

<svg
   xmlns:dc="http://purl.org/dc/elements/1.1/"
   xmlns:cc="http://creativecommons.org/ns#"
   xmlns:rdf="http://www.w3.org/1999/02/22-rdf-syntax-ns#"
   xmlns:svg="http://www.w3.org/2000/svg"
   xmlns="http://www.w3.org/2000/svg"
   xmlns:sodipodi="http://sodipodi.sourceforge.net/DTD/sodipodi-0.dtd"
   xmlns:inkscape="http://www.inkscape.org/namespaces/inkscape"
   width="100"
   height="100"
   viewBox="0 0 100 100"
   id="svg6718"
   version="1.1"
   inkscape:version="0.91 r">
  <defs
     id="defs6720" />
  <sodipodi:namedview
     id="base"
     pagecolor="#ffffff"
     bordercolor="#666666"
     borderopacity="1.0"
     inkscape:pageopacity="0.0"
     inkscape:pageshadow="2"
     inkscape:zoom="1.4"
     inkscape:cx="38.75"
     inkscape:cy="40.357143"
     inkscape:document-units="px"
     inkscape:current-layer="layer1"
     showgrid="false"
     units="px"
     inkscape:window-width="661"
     inkscape:window-height="716"
     inkscape:window-x="704"
     inkscape:window-y="24"
     inkscape:window-maximized="0" />
  <metadata
     id="metadata6723">
    <rdf:RDF>
      <cc:Work
         rdf:about="">
        <dc:format>image/svg+xml</dc:format>
        <dc:type
           rdf:resource="http://purl.org/dc/dcmitype/StillImage" />
        <dc:title></dc:title>
      </cc:Work>
    </rdf:RDF>
  </metadata>
  <g
     inkscape:label="Layer 1"
     inkscape:groupmode="layer"
     id="layer1"
     transform="translate(0,-952.36216)">
    <path
       inkscape:connector-curvature="0"
       id="path8345"
       d="m 49.983707,954.86237 a 2.50025,2.50025 0 0 0 -1.7676,0.7325 l -30,30 a 2.50025,2.50025 0 0 0 0,3.5351 l 5.8828,5.8828 a 2.50025,2.50025 0 0 0 -0.8828,0.5821 l -5,5.00003 a 2.50025,2.50025 0 0 0 0,3.5351 l 5.877,5.877 a 2.50025,2.50025 0 0 0 -0.877,0.5879 l -5,5 a 2.50025,2.50025 0 0 0 0,3.5351 l 30,30 a 2.50025,2.50025 0 0 0 3.5352,0 l 30,-30 a 2.50025,2.50025 0 0 0 0.7324,-1.7676 l 0,-14.6386 a 2.50025,2.50025 0 0 0 0,-0.7989 l 0,-14.56253 0,-30 a 2.50025,2.50025 0 0 0 -2.5,-2.5 l -30,0 z m 1.0352,5 26.4648,0 0,26.4649 -27.5,27.50003 -26.4648,-26.46493 27.5,-27.5 z m 13.9648,3.334 c -5.033,0 -9.166,4.133 -9.166,9.166 0,5.033 4.133,9.1662 9.166,9.1661 5.033,10e-5 9.166,-4.1331 9.166,-9.1661 0,-5.033 -4.133,-9.166 -9.166,-9.166 z m 0,5 c 2.3308,0 4.166,1.8352 4.166,4.166 0,2.3308 -1.8352,4.1661 -4.166,4.1661 -2.3308,0 -4.166,-1.8353 -4.166,-4.1661 0,-2.3308 1.8352,-4.166 4.166,-4.166 z m -31.693399,16.6407 a 2.50025,2.50025 0 0 0 -1.7402,4.2929 l 16.665999,16.66803 a 2.5004499,2.5004499 0 1 0 3.5352,-3.5371 L 35.085308,985.59487 a 2.50025,2.50025 0 0 0 -1.795,-0.7578 z m 44.193399,8.5605 0,7.92973 -27.5,27.5 -26.4648,-26.4649 3.2324,-3.23243 a 2.50025,2.50025 0 0 0 0.582,-0.8828 l 20.8828,20.88283 a 2.50025,2.50025 0 0 0 3.5352,0 l 25.7324,-25.73243 z m 0,15.00003 0,7.9297 -27.5,27.5 -26.4648,-26.4649 3.2324,-3.2324 a 2.50025,2.50025 0 0 0 0.5859,-0.8789 l 20.8789,20.8789 a 2.50025,2.50025 0 0 0 3.5352,0 l 25.7324,-25.7324 z"
       style="color:black;font-style:normal;font-variant:normal;font-weight:normal;font-stretch:normal;font-size:medium;line-height:normal;font-family:sans-serif;text-indent:0;text-align:start;text-decoration:none;text-decoration-line:none;text-decoration-style:solid;text-decoration-color:black;letter-spacing:normal;word-spacing:normal;text-transform:none;direction:ltr;block-progression:tb;writing-mode:lr-tb;baseline-shift:baseline;text-anchor:start;white-space:normal;clip-rule:nonzero;display:inline;overflow:visible;visibility:visible;opacity:1;isolation:auto;mix-blend-mode:normal;color-interpolation:sRGB;color-interpolation-filters:linearRGB;solid-color:black;solid-opacity:1;fill:black;fill-opacity:1;fill-rule:evenodd;stroke:none;stroke-width:5;stroke-linecap:round;stroke-linejoin:round;stroke-miterlimit:4;stroke-dasharray:none;stroke-dashoffset:0;stroke-opacity:1;marker:none;color-rendering:auto;image-rendering:auto;shape-rendering:auto;text-rendering:auto;enable-background:accumulate" />
  </g>
</svg>
