<?xml version="1.0" encoding="UTF-8" standalone="no"?>
<!-- Created with Inkscape (http://www.inkscape.org/) -->

<svg
   xmlns:dc="http://purl.org/dc/elements/1.1/"
   xmlns:cc="http://creativecommons.org/ns#"
   xmlns:rdf="http://www.w3.org/1999/02/22-rdf-syntax-ns#"
   xmlns:svg="http://www.w3.org/2000/svg"
   xmlns="http://www.w3.org/2000/svg"
   xmlns:sodipodi="http://sodipodi.sourceforge.net/DTD/sodipodi-0.dtd"
   xmlns:inkscape="http://www.inkscape.org/namespaces/inkscape"
   width="100"
   height="100"
   viewBox="0 0 100 100"
   id="svg6718"
   version="1.1"
   inkscape:version="0.91 r">
  <defs
     id="defs6720" />
  <sodipodi:namedview
     id="base"
     pagecolor="#ffffff"
     bordercolor="#666666"
     borderopacity="1.0"
     inkscape:pageopacity="0.0"
     inkscape:pageshadow="2"
     inkscape:zoom="1.4"
     inkscape:cx="38.75"
     inkscape:cy="40.357143"
     inkscape:document-units="px"
     inkscape:current-layer="layer1"
     showgrid="false"
     units="px"
     inkscape:window-width="661"
     inkscape:window-height="716"
     inkscape:window-x="704"
     inkscape:window-y="24"
     inkscape:window-maximized="0" />
  <metadata
     id="metadata6723">
    <rdf:RDF>
      <cc:Work
         rdf:about="">
        <dc:format>image/svg+xml</dc:format>
        <dc:type
           rdf:resource="http://purl.org/dc/dcmitype/StillImage" />
        <dc:title></dc:title>
      </cc:Work>
    </rdf:RDF>
  </metadata>
  <g
     inkscape:label="Layer 1"
     inkscape:groupmode="layer"
     id="layer1"
     transform="translate(0,-952.36216)">
    <path
       inkscape:connector-curvature="0"
       id="path8347"
       d="m 89.961082,954.84361 a 2.50025,2.50025 0 0 0 -0.3789,0.037 l -69.582001,0 0,0 c -6.7902,0 -12.3395993,5.4723 -12.4862993,12.2286 a 2.50025,2.50025 0 0 0 -0.014,0.2714 l 0,80.00008 a 2.50025,2.50025 0 0 0 2.5,2.5 l 80.0000003,0 a 2.50025,2.50025 0 0 0 2.5,-2.5 l 0,-90.00008 a 2.50025,2.50025 0 0 0 -2.5371,-2.5351 z m -69.962901,5.0351 60.271501,0 c -1.6334,2.1128 -2.7715,4.635 -2.7715,7.5 0,2.8645 1.1387,5.3874 2.7715,7.5 l -29.2715,0 -25.000001,0 -6,0 c -4.1982,0 -7.5,-3.3017 -7.5,-7.5 0,-4.1982 3.3018,-7.5 7.5,-7.5 z m 67.500001,0.4219 0,14.1563 c -2.9352,-1.0118 -5,-3.7616 -5,-7.0782 0,-3.3164 2.0648,-6.0663 5,-7.0781 z m -67.500001,4.5781 a 2.50025,2.50025 0 1 0 0,5 l 50.000001,0 a 2.50025,2.50025 0 1 0 0,-5 l -50.000001,0 z m -7.5,12.4688 c 2.0935,1.5805 4.6865,2.5312 7.5,2.5312 l 3.5,0 0,47.50009 a 2.50025,2.50025 0 0 0 4.0625,1.9532 l 10.937501,-8.75 10.9375,8.75 a 2.50025,2.50025 0 0 0 4.0625,-1.9532 l 0,-47.50009 34,0 0,65.00009 -75.000001,0 0,-67.53129 z m 16,2.5312 20.000001,0 0,42.29899 -8.4375,-6.75 a 2.50025,2.50025 0 0 0 -3.125,0 l -8.437501,6.75 0,-42.29899 z"
       style="color:black;font-style:normal;font-variant:normal;font-weight:normal;font-stretch:normal;font-size:medium;line-height:normal;font-family:sans-serif;text-indent:0;text-align:start;text-decoration:none;text-decoration-line:none;text-decoration-style:solid;text-decoration-color:black;letter-spacing:normal;word-spacing:normal;text-transform:none;direction:ltr;block-progression:tb;writing-mode:lr-tb;baseline-shift:baseline;text-anchor:start;white-space:normal;clip-rule:nonzero;display:inline;overflow:visible;visibility:visible;opacity:1;isolation:auto;mix-blend-mode:normal;color-interpolation:sRGB;color-interpolation-filters:linearRGB;solid-color:black;solid-opacity:1;fill:black;fill-opacity:1;fill-rule:evenodd;stroke:none;stroke-width:5;stroke-linecap:round;stroke-linejoin:round;stroke-miterlimit:4;stroke-dasharray:none;stroke-dashoffset:0;stroke-opacity:1;marker:none;color-rendering:auto;image-rendering:auto;shape-rendering:auto;text-rendering:auto;enable-background:accumulate" />
  </g>
</svg>
