<?xml version="1.0" encoding="UTF-8" standalone="no"?>
<!-- Created with Inkscape (http://www.inkscape.org/) -->

<svg
   xmlns:dc="http://purl.org/dc/elements/1.1/"
   xmlns:cc="http://creativecommons.org/ns#"
   xmlns:rdf="http://www.w3.org/1999/02/22-rdf-syntax-ns#"
   xmlns:svg="http://www.w3.org/2000/svg"
   xmlns="http://www.w3.org/2000/svg"
   xmlns:sodipodi="http://sodipodi.sourceforge.net/DTD/sodipodi-0.dtd"
   xmlns:inkscape="http://www.inkscape.org/namespaces/inkscape"
   width="100"
   height="100"
   viewBox="0 0 100 100"
   id="svg6718"
   version="1.1"
   inkscape:version="0.91 r"
   sodipodi:docname="checkbox.svg">
  <defs
     id="defs6720" />
  <sodipodi:namedview
     id="base"
     pagecolor="#ffffff"
     bordercolor="#666666"
     borderopacity="1.0"
     inkscape:pageopacity="0.0"
     inkscape:pageshadow="2"
     inkscape:zoom="2.8"
     inkscape:cx="12.589286"
     inkscape:cy="48.392857"
     inkscape:document-units="px"
     inkscape:current-layer="layer1"
     showgrid="false"
     units="px"
     inkscape:window-width="1323"
     inkscape:window-height="744"
     inkscape:window-x="43"
     inkscape:window-y="24"
     inkscape:window-maximized="1" />
  <metadata
     id="metadata6723">
    <rdf:RDF>
      <cc:Work
         rdf:about="">
        <dc:format>image/svg+xml</dc:format>
        <dc:type
           rdf:resource="http://purl.org/dc/dcmitype/StillImage" />
        <dc:title></dc:title>
      </cc:Work>
    </rdf:RDF>
  </metadata>
  <g
     inkscape:label="Layer 1"
     inkscape:groupmode="layer"
     id="layer1"
     transform="translate(0,-952.36216)">
    <path
       inkscape:connector-curvature="0"
       id="path5167"
       style="color:black;font-style:normal;font-variant:normal;font-weight:normal;font-stretch:normal;font-size:medium;line-height:normal;font-family:sans-serif;text-indent:0;text-align:start;text-decoration:none;text-decoration-line:none;text-decoration-style:solid;text-decoration-color:black;letter-spacing:normal;word-spacing:normal;text-transform:none;direction:ltr;block-progression:tb;writing-mode:lr-tb;baseline-shift:baseline;text-anchor:start;white-space:normal;clip-rule:nonzero;display:inline;overflow:visible;visibility:visible;opacity:1;isolation:auto;mix-blend-mode:normal;color-interpolation:sRGB;color-interpolation-filters:linearRGB;solid-color:black;solid-opacity:1;fill:black;fill-opacity:1;fill-rule:evenodd;stroke:none;stroke-width:5;stroke-linecap:round;stroke-linejoin:round;stroke-miterlimit:4;stroke-dasharray:none;stroke-dashoffset:0;stroke-opacity:1;marker:none;color-rendering:auto;image-rendering:auto;shape-rendering:auto;text-rendering:auto;enable-background:accumulate"
       d="m 95.079191,954.84991 a 2.50025,2.50025 0 0 0 -1.9356,0.8379 l -53.234298,58.07419 -18.1543,-18.15419 a 2.5004357,2.5004357 0 0 0 -3.5352,3.5371 l 20,19.99999 a 2.50025,2.50025 0 0 0 3.6114,-0.08 l 54.999998,-59.99999 a 2.50025,2.50025 0 0 0 -1.752,-4.2149 z m -90.0917975,20.0254 a 2.50025,2.50025 0 0 0 -2.5,2.5 l 0,69.99999 a 2.50025,2.50025 0 0 0 2.5,2.5 l 69.9999975,0 a 2.50025,2.50025 0 0 0 2.5,-2.5 l 0,-45 a 2.50025,2.50025 0 1 0 -5,0 l 0,42.5 -64.9999975,0 0,-64.99999 47.4999995,0 a 2.50025,2.50025 0 1 0 0,-5 l -49.9999995,0 z" />
  </g>
</svg>
