<?xml version="1.0" encoding="UTF-8" standalone="no"?>
<!-- Created with Inkscape (http://www.inkscape.org/) -->

<svg
   xmlns:dc="http://purl.org/dc/elements/1.1/"
   xmlns:cc="http://creativecommons.org/ns#"
   xmlns:rdf="http://www.w3.org/1999/02/22-rdf-syntax-ns#"
   xmlns:svg="http://www.w3.org/2000/svg"
   xmlns="http://www.w3.org/2000/svg"
   xmlns:sodipodi="http://sodipodi.sourceforge.net/DTD/sodipodi-0.dtd"
   xmlns:inkscape="http://www.inkscape.org/namespaces/inkscape"
   width="100"
   height="100"
   viewBox="0 0 100 100"
   id="svg6718"
   version="1.1"
   inkscape:version="0.91 r">
  <defs
     id="defs6720" />
  <sodipodi:namedview
     id="base"
     pagecolor="#ffffff"
     bordercolor="#666666"
     borderopacity="1.0"
     inkscape:pageopacity="0.0"
     inkscape:pageshadow="2"
     inkscape:zoom="1.4"
     inkscape:cx="38.75"
     inkscape:cy="40.357143"
     inkscape:document-units="px"
     inkscape:current-layer="layer1"
     showgrid="false"
     units="px"
     inkscape:window-width="661"
     inkscape:window-height="716"
     inkscape:window-x="704"
     inkscape:window-y="24"
     inkscape:window-maximized="0" />
  <metadata
     id="metadata6723">
    <rdf:RDF>
      <cc:Work
         rdf:about="">
        <dc:format>image/svg+xml</dc:format>
        <dc:type
           rdf:resource="http://purl.org/dc/dcmitype/StillImage" />
        <dc:title></dc:title>
      </cc:Work>
    </rdf:RDF>
  </metadata>
  <g
     inkscape:label="Layer 1"
     inkscape:groupmode="layer"
     id="layer1"
     transform="translate(0,-952.36216)">
    <path
       inkscape:connector-curvature="0"
       id="path8341"
       d="m 50,954.86213 c -26.2039,0 -47.5000001,21.2961 -47.5000001,47.49997 0,26.204 21.2961001,47.5001 47.5000001,47.5001 26.2039,0 47.5,-21.2961 47.5,-47.5001 0,-26.20387 -21.2961,-47.49997 -47.5,-47.49997 z m 0,5 c 10.8498,0 20.7343,4.0546 28.2383,10.7266 l -0.01,0.01 -4.2676,4.2676 -48.9648,0 a 2.50025,2.50025 0 0 0 -1.9434,4.0723 l 19.6661,24.31257 0,2.8574 -24.4903,24.4902 0,0 c -6.6716,-7.5039 -10.7285001,-17.3869 -10.7285001,-28.2365 0,-23.50167 18.9983001,-42.49997 42.5000001,-42.49997 z m 31.7734,14.2617 c 6.6716,7.5039 10.7266,17.3889 10.7266,28.23827 0,23.5018 -18.9983,42.5001 -42.5,42.5001 -10.8494,0 -20.7344,-4.0549 -28.2383,-10.7265 l 0.01,-0.01 60,-60.00007 0.01,-0.01 z m -51.5351,5.7383 38.7265,0 -21.4687,21.46877 a 2.50025,2.50025 0 0 0 -0.3301,-0.541 L 30.2383,979.86213 Z m 14.207,6.1114 a 2.50025,2.50025 0 1 0 0,5 l 11.1094,0 a 2.50025,2.50025 0 1 0 0,-5 l -11.1094,0 z m 12.832,17.64647 -5,5 0,11.7481 -4.5546,2.6484 0,-9.8418 -5,5 0,9.1875 a 2.50025,2.50025 0 0 0 3.7558,2.1621 l 9.5567,-5.5566 a 2.50025,2.50025 0 0 0 1.2421,-2.1602 l 0,-18.1875 z"
       style="color:black;font-style:normal;font-variant:normal;font-weight:normal;font-stretch:normal;font-size:medium;line-height:normal;font-family:sans-serif;text-indent:0;text-align:start;text-decoration:none;text-decoration-line:none;text-decoration-style:solid;text-decoration-color:black;letter-spacing:normal;word-spacing:normal;text-transform:none;direction:ltr;block-progression:tb;writing-mode:lr-tb;baseline-shift:baseline;text-anchor:start;white-space:normal;clip-rule:nonzero;display:inline;overflow:visible;visibility:visible;opacity:1;isolation:auto;mix-blend-mode:normal;color-interpolation:sRGB;color-interpolation-filters:linearRGB;solid-color:black;solid-opacity:1;fill:black;fill-opacity:1;fill-rule:evenodd;stroke:none;stroke-width:5;stroke-linecap:round;stroke-linejoin:round;stroke-miterlimit:4;stroke-dasharray:none;stroke-dashoffset:0;stroke-opacity:1;marker:none;color-rendering:auto;image-rendering:auto;shape-rendering:auto;text-rendering:auto;enable-background:accumulate" />
  </g>
</svg>
