<?xml version="1.0" encoding="UTF-8" standalone="no"?>
<!-- Created with Inkscape (http://www.inkscape.org/) -->

<svg
   xmlns:dc="http://purl.org/dc/elements/1.1/"
   xmlns:cc="http://creativecommons.org/ns#"
   xmlns:rdf="http://www.w3.org/1999/02/22-rdf-syntax-ns#"
   xmlns:svg="http://www.w3.org/2000/svg"
   xmlns="http://www.w3.org/2000/svg"
   xmlns:sodipodi="http://sodipodi.sourceforge.net/DTD/sodipodi-0.dtd"
   xmlns:inkscape="http://www.inkscape.org/namespaces/inkscape"
   width="100"
   height="100"
   viewBox="0 0 100 100"
   id="svg6718"
   version="1.1"
   inkscape:version="0.91 r">
  <defs
     id="defs6720" />
  <sodipodi:namedview
     id="base"
     pagecolor="#ffffff"
     bordercolor="#666666"
     borderopacity="1.0"
     inkscape:pageopacity="0.0"
     inkscape:pageshadow="2"
     inkscape:zoom="1.4"
     inkscape:cx="38.75"
     inkscape:cy="40.357143"
     inkscape:document-units="px"
     inkscape:current-layer="layer1"
     showgrid="false"
     units="px"
     inkscape:window-width="661"
     inkscape:window-height="716"
     inkscape:window-x="704"
     inkscape:window-y="24"
     inkscape:window-maximized="0" />
  <metadata
     id="metadata6723">
    <rdf:RDF>
      <cc:Work
         rdf:about="">
        <dc:format>image/svg+xml</dc:format>
        <dc:type
           rdf:resource="http://purl.org/dc/dcmitype/StillImage" />
        <dc:title></dc:title>
      </cc:Work>
    </rdf:RDF>
  </metadata>
  <g
     inkscape:label="Layer 1"
     inkscape:groupmode="layer"
     id="layer1"
     transform="translate(0,-952.36216)">
    <path
       inkscape:connector-curvature="0"
       id="path8331"
       d="m 19.9629,954.82697 c -1.3799,0.021 -2.4823,1.1552 -2.4629,2.5351 l 0,55.22653 c -7.0714,1.2003 -12.4999998,7.3722 -12.4999998,14.7734 0,7.4014 5.4285998,13.5712 12.4999998,14.7715 l 0,5.2285 c -0.048,3.3808 5.0478,3.3808 5,0 l 0,-5.2285 c 7.0714,-1.2003 12.5,-7.3701 12.5,-14.7715 0,-7.4012 -5.4286,-13.5731 -12.5,-14.7734 l 0,-55.22653 c 0.02,-1.409 -1.1281,-2.556 -2.5371,-2.5351 z m 30.0371,0 c -1.262,0 -2.524,0.8447 -2.5,2.5351 l 0,5.2286 c -7.0714,1.2003 -12.5,7.37 -12.5,14.7714 0,7.4012 5.4286,13.5732 12.5,14.7735 l 0,55.22643 c -0.019,1.3799 1.083,2.5142 2.4629,2.5352 1.409,0.021 2.5571,-1.1262 2.5371,-2.5352 l 0,-55.22643 c 7.0714,-1.2003 12.5,-7.3723 12.5,-14.7735 0,-7.4014 -5.4286,-13.5711 -12.5,-14.7714 l 0,-5.2286 c 0.024,-1.6904 -1.238,-2.5351 -2.5,-2.5351 z m 29.9629,0 c -1.3799,0.021 -2.4823,1.1552 -2.4629,2.5351 l 0,55.22653 c -7.0714,1.2003 -12.5,7.3722 -12.5,14.7734 0,7.4014 5.4286,13.5712 12.5,14.7715 l 0,5.2285 c -0.048,3.3808 5.0478,3.3808 5,0 l 0,-5.2285 c 7.0714,-1.2003 12.5,-7.3701 12.5,-14.7715 0,-7.4012 -5.4286,-13.5731 -12.5,-14.7734 l 0,-55.22653 c 0.02,-1.409 -1.1281,-2.5561 -2.5371,-2.5351 z M 50,967.36207 c 5.5525,0 10,4.4475 10,10 0,5.5524 -4.4475,10 -10,10 -5.5525,0 -10,-4.4476 -10,-10 0,-5.5525 4.4475,-10 10,-10 z M 20,1017.362 c 5.5525,0 10,4.4476 10,10 0,5.5525 -4.4475,10 -10,10 -5.5525,0 -10.0000002,-4.4475 -10.0000002,-10 0,-5.5524 4.4475002,-10 10.0000002,-10 z m 60,0 c 5.5525,0 10,4.4476 10,10 0,5.5525 -4.4475,10 -10,10 -5.5525,0 -10,-4.4475 -10,-10 0,-5.5524 4.4475,-10 10,-10 z"
       style="color:black;font-style:normal;font-variant:normal;font-weight:normal;font-stretch:normal;font-size:medium;line-height:normal;font-family:sans-serif;text-indent:0;text-align:start;text-decoration:none;text-decoration-line:none;text-decoration-style:solid;text-decoration-color:black;letter-spacing:normal;word-spacing:normal;text-transform:none;direction:ltr;block-progression:tb;writing-mode:lr-tb;baseline-shift:baseline;text-anchor:start;white-space:normal;clip-rule:nonzero;display:inline;overflow:visible;visibility:visible;opacity:1;isolation:auto;mix-blend-mode:normal;color-interpolation:sRGB;color-interpolation-filters:linearRGB;solid-color:black;solid-opacity:1;fill:black;fill-opacity:1;fill-rule:evenodd;stroke:none;stroke-width:5;stroke-linecap:round;stroke-linejoin:round;stroke-miterlimit:4;stroke-dasharray:none;stroke-dashoffset:0;stroke-opacity:1;marker:none;color-rendering:auto;image-rendering:auto;shape-rendering:auto;text-rendering:auto;enable-background:accumulate" />
  </g>
</svg>
