<?xml version="1.0" encoding="UTF-8" standalone="no"?>
<!-- Created with Inkscape (http://www.inkscape.org/) -->

<svg
   xmlns:dc="http://purl.org/dc/elements/1.1/"
   xmlns:cc="http://creativecommons.org/ns#"
   xmlns:rdf="http://www.w3.org/1999/02/22-rdf-syntax-ns#"
   xmlns:svg="http://www.w3.org/2000/svg"
   xmlns="http://www.w3.org/2000/svg"
   xmlns:sodipodi="http://sodipodi.sourceforge.net/DTD/sodipodi-0.dtd"
   xmlns:inkscape="http://www.inkscape.org/namespaces/inkscape"
   width="100"
   height="100"
   viewBox="0 0 100 100"
   id="svg6718"
   version="1.1"
   inkscape:version="0.91 r">
  <defs
     id="defs6720" />
  <sodipodi:namedview
     id="base"
     pagecolor="#ffffff"
     bordercolor="#666666"
     borderopacity="1.0"
     inkscape:pageopacity="0.0"
     inkscape:pageshadow="2"
     inkscape:zoom="1.4"
     inkscape:cx="38.75"
     inkscape:cy="40.357143"
     inkscape:document-units="px"
     inkscape:current-layer="layer1"
     showgrid="false"
     units="px"
     inkscape:window-width="661"
     inkscape:window-height="716"
     inkscape:window-x="704"
     inkscape:window-y="24"
     inkscape:window-maximized="0" />
  <metadata
     id="metadata6723">
    <rdf:RDF>
      <cc:Work
         rdf:about="">
        <dc:format>image/svg+xml</dc:format>
        <dc:type
           rdf:resource="http://purl.org/dc/dcmitype/StillImage" />
        <dc:title></dc:title>
      </cc:Work>
    </rdf:RDF>
  </metadata>
  <g
     inkscape:label="Layer 1"
     inkscape:groupmode="layer"
     id="layer1"
     transform="translate(0,-952.36216)">
    <path
       inkscape:connector-curvature="0"
       id="path8335"
       d="m 24.9629,959.84479 a 2.50025,2.50025 0 0 0 -2.4629,2.5351 l 0,7.5 -17.4999998,0 a 2.50025,2.50025 0 0 0 -2.5,2.5 l 0,69.99991 a 2.50025,2.50025 0 0 0 2.5,2.5 l 89.9999998,0 a 2.50025,2.50025 0 0 0 2.5,-2.5 l 0,-69.99991 a 2.50025,2.50025 0 0 0 -2.5,-2.5 l -17.5,0 0,-7.5 a 2.50025,2.50025 0 0 0 -2.5371,-2.5351 2.50025,2.50025 0 0 0 -2.4629,2.5351 l 0,7.5 -20,0 0,-7.5 a 2.50025,2.50025 0 0 0 -2.5371,-2.5351 2.50025,2.50025 0 0 0 -2.4629,2.5351 l 0,7.5 -20,0 0,-7.5 a 2.50025,2.50025 0 0 0 -2.5371,-2.5351 z m -17.4628998,15.0351 14.9999998,0 0,2.5 a 2.50025,2.50025 0 1 0 5,0 l 0,-2.5 20,0 0,2.5 a 2.50025,2.50025 0 1 0 5,0 l 0,-2.5 20,0 0,2.5 a 2.50025,2.50025 0 1 0 5,0 l 0,-2.5 15,0 0,10 -84.9999998,0 0,-10 z m 0,15 84.9999998,0 0,49.99991 -84.9999998,0 0,-49.99991 z M 25,999.84279 a 2.50025,2.50025 0 1 0 0,5.00001 l 50,0 a 2.50025,2.50025 0 1 0 0,-5.00001 l -50,0 z m 0,12.53701 a 2.50025,2.50025 0 1 0 0,5 l 50,0 a 2.50025,2.50025 0 1 0 0,-5 l -50,0 z m 0,12.5 a 2.50025,2.50025 0 1 0 0,5 l 50,0 a 2.50025,2.50025 0 1 0 0,-5 l -50,0 z"
       style="color:black;font-style:normal;font-variant:normal;font-weight:normal;font-stretch:normal;font-size:medium;line-height:normal;font-family:sans-serif;text-indent:0;text-align:start;text-decoration:none;text-decoration-line:none;text-decoration-style:solid;text-decoration-color:black;letter-spacing:normal;word-spacing:normal;text-transform:none;direction:ltr;block-progression:tb;writing-mode:lr-tb;baseline-shift:baseline;text-anchor:start;white-space:normal;clip-rule:nonzero;display:inline;overflow:visible;visibility:visible;opacity:1;isolation:auto;mix-blend-mode:normal;color-interpolation:sRGB;color-interpolation-filters:linearRGB;solid-color:black;solid-opacity:1;fill:black;fill-opacity:1;fill-rule:evenodd;stroke:none;stroke-width:5;stroke-linecap:round;stroke-linejoin:round;stroke-miterlimit:4;stroke-dasharray:none;stroke-dashoffset:0;stroke-opacity:1;marker:none;color-rendering:auto;image-rendering:auto;shape-rendering:auto;text-rendering:auto;enable-background:accumulate" />
  </g>
</svg>
