<?xml version="1.0" encoding="UTF-8" standalone="no"?>
<!-- Created with Inkscape (http://www.inkscape.org/) -->

<svg
   xmlns:dc="http://purl.org/dc/elements/1.1/"
   xmlns:cc="http://creativecommons.org/ns#"
   xmlns:rdf="http://www.w3.org/1999/02/22-rdf-syntax-ns#"
   xmlns:svg="http://www.w3.org/2000/svg"
   xmlns="http://www.w3.org/2000/svg"
   xmlns:sodipodi="http://sodipodi.sourceforge.net/DTD/sodipodi-0.dtd"
   xmlns:inkscape="http://www.inkscape.org/namespaces/inkscape"
   width="100"
   height="100"
   viewBox="0 0 100 100"
   id="svg6718"
   version="1.1"
   inkscape:version="0.91 r">
  <defs
     id="defs6720" />
  <sodipodi:namedview
     id="base"
     pagecolor="#ffffff"
     bordercolor="#666666"
     borderopacity="1.0"
     inkscape:pageopacity="0.0"
     inkscape:pageshadow="2"
     inkscape:zoom="1.4"
     inkscape:cx="38.75"
     inkscape:cy="40.357143"
     inkscape:document-units="px"
     inkscape:current-layer="layer1"
     showgrid="false"
     units="px"
     inkscape:window-width="661"
     inkscape:window-height="716"
     inkscape:window-x="704"
     inkscape:window-y="24"
     inkscape:window-maximized="0" />
  <metadata
     id="metadata6723">
    <rdf:RDF>
      <cc:Work
         rdf:about="">
        <dc:format>image/svg+xml</dc:format>
        <dc:type
           rdf:resource="http://purl.org/dc/dcmitype/StillImage" />
        <dc:title></dc:title>
      </cc:Work>
    </rdf:RDF>
  </metadata>
  <g
     inkscape:label="Layer 1"
     inkscape:groupmode="layer"
     id="layer1"
     transform="translate(0,-952.36216)">
    <path
       inkscape:connector-curvature="0"
       id="path8343"
       d="m 50.000256,954.86142 a 2.50025,2.50025 0 0 0 -1.7676,0.7324 L 3.2326563,1000.5938 a 2.50025,2.50025 0 0 0 0,3.5371 l 44.9999997,45 a 2.50025,2.50025 0 0 0 3.5352,0 l 45,-45 a 2.50025,2.50025 0 0 0 0.7324,-1.7695 l 0,-44.99998 a 2.50025,2.50025 0 0 0 -2.5,-2.5 l -45,0 z m 1.0371,5 41.4629,0 0,41.46478 -42.5,42.5 -41.4647998,-41.4629 42.5018998,-42.50188 z m 21.4629,7.5 c -6.8739,0 -12.5,5.6261 -12.5,12.5 0,6.874 5.6261,12.5 12.5,12.5 6.8739,0 12.5,-5.626 12.5,-12.5 0,-6.8739 -5.6261,-12.5 -12.5,-12.5 z m 0,5 c 4.1717,0 7.5,3.3283 7.5,7.5 0,4.1718 -3.3283,7.5 -7.5,7.5 -4.1717,0 -7.5,-3.3282 -7.5,-7.5 0,-4.1717 3.3283,-7.5 7.5,-7.5 z m -47.5254,27.47651 a 2.50025,2.50025 0 0 0 -1.7422,4.29297 l 25,25 a 2.5004393,2.5004393 0 0 0 3.5352,-3.5371 l -25,-25 a 2.50025,2.50025 0 0 0 -1.793,-0.75587 z"
       style="color:black;font-style:normal;font-variant:normal;font-weight:normal;font-stretch:normal;font-size:medium;line-height:normal;font-family:sans-serif;text-indent:0;text-align:start;text-decoration:none;text-decoration-line:none;text-decoration-style:solid;text-decoration-color:black;letter-spacing:normal;word-spacing:normal;text-transform:none;direction:ltr;block-progression:tb;writing-mode:lr-tb;baseline-shift:baseline;text-anchor:start;white-space:normal;clip-rule:nonzero;display:inline;overflow:visible;visibility:visible;opacity:1;isolation:auto;mix-blend-mode:normal;color-interpolation:sRGB;color-interpolation-filters:linearRGB;solid-color:black;solid-opacity:1;fill:black;fill-opacity:1;fill-rule:evenodd;stroke:none;stroke-width:5;stroke-linecap:round;stroke-linejoin:round;stroke-miterlimit:4;stroke-dasharray:none;stroke-dashoffset:0;stroke-opacity:1;marker:none;color-rendering:auto;image-rendering:auto;shape-rendering:auto;text-rendering:auto;enable-background:accumulate" />
  </g>
</svg>
