<?xml version="1.0" encoding="UTF-8" standalone="no"?>
<svg
   xmlns:dc="http://purl.org/dc/elements/1.1/"
   xmlns:cc="http://creativecommons.org/ns#"
   xmlns:rdf="http://www.w3.org/1999/02/22-rdf-syntax-ns#"
   xmlns:svg="http://www.w3.org/2000/svg"
   xmlns="http://www.w3.org/2000/svg"
   xmlns:sodipodi="http://sodipodi.sourceforge.net/DTD/sodipodi-0.dtd"
   xmlns:inkscape="http://www.inkscape.org/namespaces/inkscape"
   version="1.1"
   id="svg5172"
   viewBox="0 0 100 100"
   height="100"
   width="100"
   inkscape:version="0.91 r"
   sodipodi:docname="todoProcessed.svg">
  <sodipodi:namedview
     pagecolor="#ffffff"
     bordercolor="#666666"
     borderopacity="1"
     objecttolerance="10"
     gridtolerance="10"
     guidetolerance="10"
     inkscape:pageopacity="0"
     inkscape:pageshadow="2"
     inkscape:window-width="1877"
     inkscape:window-height="1056"
     id="namedview7911"
     showgrid="false"
     inkscape:zoom="2.36"
     inkscape:cx="50"
     inkscape:cy="50"
     inkscape:window-x="43"
     inkscape:window-y="24"
     inkscape:window-maximized="1"
     inkscape:current-layer="svg5172" />
  <defs
     id="defs5174" />
  <metadata
     id="metadata5177">
    <rdf:RDF>
      <cc:Work
         rdf:about="">
        <dc:format>image/svg+xml</dc:format>
        <dc:type
           rdf:resource="http://purl.org/dc/dcmitype/StillImage" />
        <dc:title />
      </cc:Work>
    </rdf:RDF>
  </metadata>
  <g
     transform="translate(0,-952.36216)"
     id="layer1"
     style="fill:black;fill-opacity:1">
    <path
       id="rect5728"
       transform="translate(0,952.36216)"
       d="M 10 7.5 A 2.50025 2.50025 0 0 0 7.5 10 L 7.5 90 A 2.50025 2.50025 0 0 0 10 92.5 L 90 92.5 A 2.50025 2.50025 0 0 0 92.5 90 L 92.5 10 A 2.50025 2.50025 0 0 0 90 7.5 L 10 7.5 z M 12.5 12.5 L 87.5 12.5 L 87.5 87.5 L 12.5 87.5 L 12.5 12.5 z M 50.492188 27.503906 C 50.066069 27.496906 49.638253 27.502931 49.210938 27.519531 C 46.931919 27.610331 44.641986 28.049372 42.421875 28.857422 C 35.366017 31.425542 30.190146 37.298607 28.355469 44.341797 L 25.058594 44.341797 A 1.50015 1.50015 0 0 0 23.833984 46.707031 L 29.716797 55.027344 A 1.50015 1.50015 0 0 0 32.166016 55.027344 L 38.048828 46.707031 A 1.50015 1.50015 0 0 0 36.824219 44.341797 L 33.564453 44.341797 C 35.243626 39.425947 39.058184 35.403651 44.132812 33.556641 C 51.054181 31.037471 58.788943 33.109603 63.523438 38.751953 A 2.50025 2.50025 0 1 0 67.353516 35.539062 C 63.082326 30.448863 56.88396 27.613796 50.492188 27.503906 z M 68.992188 44.34375 A 1.50015 1.50015 0 0 0 67.833984 44.974609 L 61.951172 53.294922 A 1.50015 1.50015 0 0 0 63.175781 55.660156 L 66.669922 55.660156 C 64.990963 60.575756 61.177471 64.598613 56.103516 66.445312 C 49.182148 68.964512 41.445429 66.8924 36.710938 61.25 A 2.50025 2.50025 0 1 0 32.880859 64.462891 C 38.95544 71.702291 48.932057 74.376731 57.8125 71.144531 C 64.867728 68.576631 70.043794 62.703056 71.878906 55.660156 L 74.941406 55.660156 A 1.50015 1.50015 0 0 0 76.166016 53.294922 L 70.283203 44.974609 A 1.50015 1.50015 0 0 0 68.992188 44.34375 z "
       style="color:black;font-style:normal;font-variant:normal;font-weight:normal;font-stretch:normal;font-size:medium;line-height:normal;font-family:sans-serif;text-indent:0;text-align:start;text-decoration:none;text-decoration-line:none;text-decoration-style:solid;text-decoration-color:black;letter-spacing:normal;word-spacing:normal;text-transform:none;direction:ltr;block-progression:tb;writing-mode:lr-tb;baseline-shift:baseline;text-anchor:start;white-space:normal;clip-rule:nonzero;display:inline;overflow:visible;visibility:visible;opacity:1;isolation:auto;mix-blend-mode:normal;color-interpolation:sRGB;color-interpolation-filters:linearRGB;solid-color:black;solid-opacity:1;fill:black;fill-opacity:1;fill-rule:evenodd;stroke:none;stroke-width:5;stroke-linecap:round;stroke-linejoin:round;stroke-miterlimit:4;stroke-dasharray:none;stroke-dashoffset:0;stroke-opacity:1;marker:none;color-rendering:auto;image-rendering:auto;shape-rendering:auto;text-rendering:auto;enable-background:accumulate" />
  </g>
</svg>
