<?xml version="1.0" encoding="UTF-8" standalone="no"?>
<!-- Created with Inkscape (http://www.inkscape.org/) -->

<svg
   xmlns:dc="http://purl.org/dc/elements/1.1/"
   xmlns:cc="http://creativecommons.org/ns#"
   xmlns:rdf="http://www.w3.org/1999/02/22-rdf-syntax-ns#"
   xmlns:svg="http://www.w3.org/2000/svg"
   xmlns="http://www.w3.org/2000/svg"
   xmlns:sodipodi="http://sodipodi.sourceforge.net/DTD/sodipodi-0.dtd"
   xmlns:inkscape="http://www.inkscape.org/namespaces/inkscape"
   width="100"
   height="100"
   viewBox="0 0 100 100"
   id="svg6718"
   version="1.1"
   inkscape:version="0.91 r">
  <defs
     id="defs6720" />
  <sodipodi:namedview
     id="base"
     pagecolor="#ffffff"
     bordercolor="#666666"
     borderopacity="1.0"
     inkscape:pageopacity="0.0"
     inkscape:pageshadow="2"
     inkscape:zoom="1.4"
     inkscape:cx="38.75"
     inkscape:cy="40.357143"
     inkscape:document-units="px"
     inkscape:current-layer="layer1"
     showgrid="false"
     units="px"
     inkscape:window-width="661"
     inkscape:window-height="716"
     inkscape:window-x="704"
     inkscape:window-y="24"
     inkscape:window-maximized="0" />
  <metadata
     id="metadata6723">
    <rdf:RDF>
      <cc:Work
         rdf:about="">
        <dc:format>image/svg+xml</dc:format>
        <dc:type
           rdf:resource="http://purl.org/dc/dcmitype/StillImage" />
        <dc:title></dc:title>
      </cc:Work>
    </rdf:RDF>
  </metadata>
  <g
     inkscape:label="Layer 1"
     inkscape:groupmode="layer"
     id="layer1"
     transform="translate(0,-952.36216)">
    <path
       inkscape:connector-curvature="0"
       id="path8355"
       d="m 50,954.86212 c -26.2039,0 -47.5,21.29611 -47.5,47.49998 0,26.204 21.2961,47.5001 47.5,47.5001 26.2039,0 47.5,-21.2961 47.5,-47.5001 0,-26.20388 -21.2961,-47.49998 -47.5,-47.49998 z m 0,5 c 10.8498,0 20.7343,4.05461 28.2383,10.7266 l -0.01,0.01 -6.2676,6.2676 -1.9648,0 -7.5,0 -17.5,0 a 2.50025,2.50025 0 0 0 -1.7676,0.7324 l -25,25.00008 a 2.50025,2.50025 0 0 0 0,3.5372 l 12.2324,12.2304 -12.2324,12.2324 0,0 c -6.6721,-7.504 -10.7285,-17.3865 -10.7285,-28.2365 0,-23.50168 18.9983,-42.49998 42.5,-42.49998 z m 31.7734,14.2637 c 6.6711,7.5037 10.7266,17.3874 10.7266,28.23628 0,23.5018 -18.9983,42.5001 -42.5,42.5001 -10.8488,0 -20.7326,-4.0556 -28.2363,-10.7265 l 0,0 60,-60.00008 0.01,-0.01 z m -35.7363,7.7363 20.9277,0 -4.0605,4.06061 c -1.4325,-1.30841 -3.3293,-2.11531 -5.4043,-2.11531 -4.4194,0 -8.0547,3.6353 -8.0547,8.0547 10e-5,2.0751 0.8049,3.973 2.1133,5.4063 l -12.0039,12.00398 -6.6758,-6.6778 a 2.50025,2.50025 0 0 0 -1.793,-0.7559 2.50025,2.50025 0 0 0 -1.7421,4.2931 l 6.6757,6.6757 -2.0195,2.0196 -10.4648,-10.4629 22.5019,-22.50208 z m 26.4629,6.5371 -5,5 0,9.92788 -22.5,22.5 -4.9648,-4.9629 -3.5352,3.5351 6.7324,6.7325 a 2.50025,2.50025 0 0 0 3.5352,0 l 25,-25 a 2.50025,2.50025 0 0 0 0.7324,-1.7696 l 0,-15.96298 z m -15,0.4082 c 0.7185,0 1.3615,0.2444 1.877,0.6426 l -4.2911,4.29101 c -0.3979,-0.51571 -0.6406,-1.16061 -0.6406,-1.87891 0,-1.71709 1.3375,-3.0547 3.0547,-3.0547 z m -11.9082,26.50008 -3.5371,3.5352 1.1777,1.1777 a 2.5004393,2.5004393 0 1 0 3.5352,-3.5371 l -1.1758,-1.1758 z"
       style="color:black;font-style:normal;font-variant:normal;font-weight:normal;font-stretch:normal;font-size:medium;line-height:normal;font-family:sans-serif;text-indent:0;text-align:start;text-decoration:none;text-decoration-line:none;text-decoration-style:solid;text-decoration-color:black;letter-spacing:normal;word-spacing:normal;text-transform:none;direction:ltr;block-progression:tb;writing-mode:lr-tb;baseline-shift:baseline;text-anchor:start;white-space:normal;clip-rule:nonzero;display:inline;overflow:visible;visibility:visible;opacity:1;isolation:auto;mix-blend-mode:normal;color-interpolation:sRGB;color-interpolation-filters:linearRGB;solid-color:black;solid-opacity:1;fill:black;fill-opacity:1;fill-rule:evenodd;stroke:none;stroke-width:5;stroke-linecap:round;stroke-linejoin:round;stroke-miterlimit:4;stroke-dasharray:none;stroke-dashoffset:0;stroke-opacity:1;marker:none;color-rendering:auto;image-rendering:auto;shape-rendering:auto;text-rendering:auto;enable-background:accumulate" />
  </g>
</svg>
