<?xml version="1.0" encoding="UTF-8" standalone="no"?>
<svg
   xmlns:dc="http://purl.org/dc/elements/1.1/"
   xmlns:cc="http://creativecommons.org/ns#"
   xmlns:rdf="http://www.w3.org/1999/02/22-rdf-syntax-ns#"
   xmlns:svg="http://www.w3.org/2000/svg"
   xmlns="http://www.w3.org/2000/svg"
   xmlns:sodipodi="http://sodipodi.sourceforge.net/DTD/sodipodi-0.dtd"
   xmlns:inkscape="http://www.inkscape.org/namespaces/inkscape"
   version="1.1"
   id="svg5172"
   viewBox="0 0 100 100"
   height="100"
   width="100"
   inkscape:version="0.91 r"
   sodipodi:docname="todoCanceled.svg">
  <sodipodi:namedview
     pagecolor="#ffffff"
     bordercolor="#666666"
     borderopacity="1"
     objecttolerance="10"
     gridtolerance="10"
     guidetolerance="10"
     inkscape:pageopacity="0"
     inkscape:pageshadow="2"
     inkscape:window-width="1877"
     inkscape:window-height="1056"
     id="namedview6047"
     showgrid="false"
     inkscape:zoom="2.36"
     inkscape:cx="4.6610169"
     inkscape:cy="7.6271186"
     inkscape:window-x="43"
     inkscape:window-y="24"
     inkscape:window-maximized="1"
     inkscape:current-layer="svg5172" />
  <defs
     id="defs5174" />
  <metadata
     id="metadata5177">
    <rdf:RDF>
      <cc:Work
         rdf:about="">
        <dc:format>image/svg+xml</dc:format>
        <dc:type
           rdf:resource="http://purl.org/dc/dcmitype/StillImage" />
        <dc:title></dc:title>
      </cc:Work>
    </rdf:RDF>
  </metadata>
  <g
     transform="translate(0,-952.36216)"
     id="layer1"
     style="fill:#a85;fill-opacity:1">
    <path
       id="rect5722"
       transform="translate(0,952.36216)"
       d="M 10 7.5 A 2.50025 2.50025 0 0 0 7.5 10 L 7.5 90 A 2.50025 2.50025 0 0 0 10 92.5 L 90 92.5 A 2.50025 2.50025 0 0 0 92.5 90 L 92.5 10 A 2.50025 2.50025 0 0 0 90 7.5 L 10 7.5 z M 12.5 12.5 L 87.5 12.5 L 87.5 87.5 L 12.5 87.5 L 12.5 12.5 z M 29.974609 27.476562 A 2.50025 2.50025 0 0 0 28.232422 31.769531 L 46.464844 50 L 28.232422 68.232422 A 2.5004202 2.5004202 0 1 0 31.767578 71.769531 L 50 53.537109 L 68.232422 71.769531 A 2.5004202 2.5004202 0 1 0 71.767578 68.232422 L 53.535156 50 L 71.767578 31.769531 A 2.50025 2.50025 0 0 0 69.951172 27.476562 A 2.50025 2.50025 0 0 0 68.232422 28.232422 L 50 46.464844 L 31.767578 28.232422 A 2.50025 2.50025 0 0 0 29.974609 27.476562 z "
       style="color:black;font-style:normal;font-variant:normal;font-weight:normal;font-stretch:normal;font-size:medium;line-height:normal;font-family:sans-serif;text-indent:0;text-align:start;text-decoration:none;text-decoration-line:none;text-decoration-style:solid;text-decoration-color:black;letter-spacing:normal;word-spacing:normal;text-transform:none;direction:ltr;block-progression:tb;writing-mode:lr-tb;baseline-shift:baseline;text-anchor:start;white-space:normal;clip-rule:nonzero;display:inline;overflow:visible;visibility:visible;opacity:1;isolation:auto;mix-blend-mode:normal;color-interpolation:sRGB;color-interpolation-filters:linearRGB;solid-color:black;solid-opacity:1;fill:#a85;fill-opacity:1;fill-rule:evenodd;stroke:none;stroke-width:5;stroke-linecap:round;stroke-linejoin:round;stroke-miterlimit:4;stroke-dasharray:none;stroke-dashoffset:0;stroke-opacity:1;marker:none;color-rendering:auto;image-rendering:auto;shape-rendering:auto;text-rendering:auto;enable-background:accumulate" />
  </g>
</svg>
