<?xml version="1.0" encoding="UTF-8" standalone="no"?>
<svg
   xmlns:dc="http://purl.org/dc/elements/1.1/"
   xmlns:cc="http://creativecommons.org/ns#"
   xmlns:rdf="http://www.w3.org/1999/02/22-rdf-syntax-ns#"
   xmlns:svg="http://www.w3.org/2000/svg"
   xmlns="http://www.w3.org/2000/svg"
   xmlns:sodipodi="http://sodipodi.sourceforge.net/DTD/sodipodi-0.dtd"
   xmlns:inkscape="http://www.inkscape.org/namespaces/inkscape"
   version="1.1"
   id="svg5172"
   viewBox="0 0 100 100"
   height="100"
   width="100"
   inkscape:version="0.91 r"
   sodipodi:docname="todoDone.svg">
  <sodipodi:namedview
     pagecolor="#ffffff"
     bordercolor="#666666"
     borderopacity="1"
     objecttolerance="10"
     gridtolerance="10"
     guidetolerance="10"
     inkscape:pageopacity="0"
     inkscape:pageshadow="2"
     inkscape:window-width="1877"
     inkscape:window-height="1056"
     id="namedview6715"
     showgrid="false"
     inkscape:zoom="2.36"
     inkscape:cx="50"
     inkscape:cy="50"
     inkscape:window-x="43"
     inkscape:window-y="24"
     inkscape:window-maximized="1"
     inkscape:current-layer="svg5172" />
  <defs
     id="defs5174" />
  <metadata
     id="metadata5177">
    <rdf:RDF>
      <cc:Work
         rdf:about="">
        <dc:format>image/svg+xml</dc:format>
        <dc:type
           rdf:resource="http://purl.org/dc/dcmitype/StillImage" />
        <dc:title></dc:title>
      </cc:Work>
    </rdf:RDF>
  </metadata>
  <g
     transform="translate(0,-952.36216)"
     id="layer1"
     style="fill:#6b0;fill-opacity:1">
    <path
       d="M 72.591797,979.85938 A 2.50025,2.50025 0 0 0 70.5,980.88672 l -28,37.33398 -13,-17.334 a 2.50025,2.50025 0 1 0 -4,3 l 15,20 a 2.50025,2.50025 0 0 0 4,0 l 30,-39.99998 a 2.50025,2.50025 0 0 0 -1.908203,-4.02734 z M 10,959.86133 a 2.50025,2.50025 0 0 0 -2.5,2.5 l 0,79.99997 a 2.50025,2.50025 0 0 0 2.5,2.5 l 80,0 a 2.50025,2.50025 0 0 0 2.5,-2.5 l 0,-79.99997 a 2.50025,2.50025 0 0 0 -2.5,-2.5 l -80,0 z m 2.5,5 75,0 0,74.99997 -75,0 0,-74.99997 z"
       style="color:black;font-style:normal;font-variant:normal;font-weight:normal;font-stretch:normal;font-size:medium;line-height:normal;font-family:sans-serif;text-indent:0;text-align:start;text-decoration:none;text-decoration-line:none;text-decoration-style:solid;text-decoration-color:black;letter-spacing:normal;word-spacing:normal;text-transform:none;direction:ltr;block-progression:tb;writing-mode:lr-tb;baseline-shift:baseline;text-anchor:start;white-space:normal;clip-rule:nonzero;display:inline;overflow:visible;visibility:visible;opacity:1;isolation:auto;mix-blend-mode:normal;color-interpolation:sRGB;color-interpolation-filters:linearRGB;solid-color:black;solid-opacity:1;fill:#6b0;fill-opacity:1;fill-rule:evenodd;stroke:none;stroke-width:5;stroke-linecap:round;stroke-linejoin:round;stroke-miterlimit:4;stroke-dasharray:none;stroke-dashoffset:0;stroke-opacity:1;marker:none;color-rendering:auto;image-rendering:auto;shape-rendering:auto;text-rendering:auto;enable-background:accumulate"
       id="path5732" />
  </g>
</svg>
